# xmcd
#
# Track frame offsets:
# 150
# 42596
# 63616
# 74797
# 90467
# 105660
# 128798
#
# Disc length: 1939 seconds
#
#
# Revision: 0
# Processed by: cddbd v1.5.1PL2 Copyright (c) Steve Scherf et al.
# Submitted via: FreeRIP 2.944 
#
DISCID=67079107
DTITLE=Cinderella - Cinderella
DYEAR=1970
DGENRE=Progressive Rock
TTITLE0=Break Song
TTITLE1=Carlt
TTITLE2=Parchman Farm
TTITLE3=Sexbomba
TTITLE4=Fire
TTITLE5=Ana-T-Nas
TTITLE6=Mr. Wild
EXTD=Danish Progressive Rock
EXTT0=
EXTT1=
EXTT2=
EXTT3=
EXTT4=
EXTT5=
EXTT6=
PLAYORDER=
